<?xml version="1.0" encoding="UTF-8"?><svg xmlns="http://www.w3.org/2000/svg" viewBox="0 0 356.16 102.16"><defs><style>.cls-1{fill:#fff;stroke-width:0px;}</style></defs><g id="MIM_Grøn"><path class="cls-1" d="m53.31,17c0,1-2.3,1.92-4.12,1.92s-4.11-.92-4.12-1.92h0c0-1.01,2.3-1.92,4.12-1.92s4.11.92,4.12,1.92h0Z"/><path class="cls-1" d="m55.12,20.3c-2.07.02-3.71,1.2-4.05,3.67-.04.65-.1,1.4-.1,1.4,0,0-1.85-.46-1.85,1.49,0,3.73,3.07,5.62,6.01,5.65"/><path class="cls-1" d="m55.12,20.3c-2.07.02-3.71,1.2-4.05,3.67-.04.65-.1,1.4-.1,1.4,0,0-1.85-.46-1.85,1.49,0,3.73,3.07,5.62,6.01,5.65"/><path class="cls-1" d="m86.86,93.74c1.65,0,1.75-8.59,0-8.59H23.38c-1.75,0-1.65,8.59,0,8.59h63.48Z"/><path class="cls-1" d="m56.92,17c0,1,2.3,1.92,4.12,1.92s4.11-.92,4.12-1.92h0c0-1.01-2.3-1.92-4.12-1.92s-4.11.92-4.12,1.92h0Z"/><path class="cls-1" d="m55.12,15.12h0c1,0,1.93-2.3,1.93-4.12s-.92-4.11-1.93-4.12h0c-1,0-1.93,2.3-1.93,4.12s.92,4.12,1.93,4.12h0Z"/><path class="cls-1" d="m55.12,32.51c2.93-.02,6.01-1.91,6.01-5.65,0-1.94-1.85-1.49-1.85-1.49,0,0-.06-.75-.1-1.4-.33-2.47-1.97-3.65-4.05-3.67"/><path class="cls-1" d="m55.12,32.51c2.93-.02,6.01-1.91,6.01-5.65,0-1.94-1.85-1.49-1.85-1.49,0,0-.06-.75-.1-1.4-.33-2.47-1.97-3.65-4.05-3.67"/><path class="cls-1" d="m55.12,35.15c-1.66,0-2.41,1.1-3.15,3.84-.42,1.58-1.12,2.12-2.27,2.12-.51,0-.84-.04-1.82-.04s-1.85.79-1.85,1.81c0,2.01,2.86,3.57,2.86,5.47,0,2.06-3.91,1.81-3.91,3.88,0,3.42,4.81,4.28,4.81,6.7,0,2.03-3.21,1.36-3.21,3.43,0,1.88,5.58,4.18,5.58,8.97,0,2.61-3.87,2.33-6.26-.04-3.17-3.14-2.77-6.14-4.36-6.14-.66,0-1.44.85-2.29.85-.94,0-2.08-1.09-2.08-2.75,0-1.85,1.06-4.78,1.06-6.37,0-1.01-.58-1.77-1.48-1.77s-1.71.1-2.33.1c-1.15,0-2.06-1.08-2.06-2.74,0-2.44,1.64-5.92,1.64-7.81s-.87-2.19-2.37-2.35c-1.6-.17-2-.45-2-1.26,0-1.67,2.51-6.56,9.47-7.44,0,0,3.43,3.3,6.52,3.3,1.3,0,2.5-.54,2.5-1.69,0-2.15-5.84-3.26-9.61-3.26-6.01,0-14.88,2.99-14.88,11.76,0,7.4,5.7,16.09,10.75,23.15,1.56,2.18,2.58,3.63,2.58,5.17,0,2.45-4.55,2.61-7.08.07-3.2-2.95-2.86-9.06-5.04-9.06-1.32,0-2.13,1.29-3.48,1.29-3.37,0-3.85-8.3-4.69-11.35-.4-1.46-1.12-1.9-1.85-1.9-.85,0-1.3.27-2.22.27-1.51,0-1.87-3.67-1.87-4.15,0-2.57,1.03-4.95,2.69-6.11,2.2,1.24,3.66,1.52,5.18,1.16.1-.03,1.01-.24,1.01-1.01s-1.17-1.96-4.23-1.96-9.01,1.96-9.01,8.51c0,8.32,14.26,22.18,14.26,22.18,1.92,1.91,2.73,4.39,2.73,6.06v4.02h63.56v-4.02c0-1.67.82-4.14,2.73-6.06,0,0,14.26-13.86,14.26-22.18,0-6.55-5.92-8.51-9.01-8.51s-4.23,1.2-4.23,1.96.92.99,1.01,1.01c1.53.36,2.99.08,5.18-1.16,1.65,1.16,2.69,3.54,2.69,6.11,0,.49-.36,4.15-1.87,4.15-.91,0-1.36-.27-2.22-.27-.73,0-1.45.44-1.85,1.9-.84,3.05-1.32,11.35-4.69,11.35-1.36,0-2.16-1.29-3.48-1.29-2.18,0-1.84,6.11-5.04,9.06-2.53,2.53-7.08,2.37-7.08-.07,0-1.54,1.02-2.99,2.58-5.17,5.06-7.06,10.75-15.75,10.75-23.15,0-8.77-8.87-11.76-14.88-11.76-3.77,0-9.61,1.11-9.61,3.26,0,1.15,1.2,1.69,2.5,1.69,3.09,0,6.52-3.3,6.52-3.3,6.96.88,9.47,5.77,9.47,7.44,0,.81-.41,1.08-2,1.26-1.51.16-2.37.38-2.37,2.35s1.64,5.37,1.64,7.81c0,1.67-.91,2.74-2.06,2.74-.61,0-1.42-.1-2.33-.1s-1.48.76-1.48,1.77c0,1.59,1.06,4.52,1.06,6.37,0,1.66-1.14,2.75-2.08,2.75-.85,0-1.64-.85-2.29-.85-1.6,0-1.19,3-4.36,6.14-2.39,2.37-6.26,2.66-6.26.04,0-4.79,5.58-7.09,5.58-8.97,0-2.07-3.21-1.39-3.21-3.43,0-2.42,4.81-3.27,4.81-6.7,0-2.07-3.91-1.82-3.91-3.88,0-1.9,2.86-3.46,2.86-5.47,0-1.02-.82-1.81-1.85-1.81s-1.31.04-1.82.04c-1.14,0-1.84-.53-2.27-2.12-.75-2.75-1.49-3.84-3.15-3.84h0Z"/></g><g id="NOTE_guideline"><path class="cls-1" d="m138.58,72.56h5.68l8.28,13.47h.1v-13.47h4.21v21h-4.56l-9.44-15.33h-.1v15.33h-4.17v-21Z"/><path class="cls-1" d="m170.02,92c-1.22,1.26-2.83,1.74-4.88,1.74-3.15,0-5.46-1.62-5.46-4.74,0-3.3,2.83-4.92,6.71-4.92,1.38,0,2.34.12,3.37.36v-1.5c0-1.44-.83-2.19-3.08-2.19-1.77,0-3.24.51-4.37,1.23h-1.32v-3.09c1.6-.69,3.56-1.32,6.42-1.32,4.66,0,7.03,1.44,7.03,5.07v10.92h-1.96c-1.48,0-2.15-.3-2.47-1.56Zm-.26-5.22c-.74-.12-1.54-.18-2.41-.18-1.89,0-3.11.63-3.11,2.16s1.06,2.22,2.63,2.22c1.16,0,2.12-.54,2.89-1.2v-3Z"/><path class="cls-1" d="m176.58,77.81h1.99v-4.2h4.69v4.2h3.4v2.94h-3.4v8.07c0,1.5.64,1.92,2.18,1.92h1.28v2.64c-.71.21-1.64.42-2.95.42-3.24,0-5.2-1.2-5.2-4.47v-8.58h-1.99v-2.94Z"/><path class="cls-1" d="m199.81,89.72v-11.91h4.69v15.75h-3.18c-.77,0-1.22-.24-1.41-1.47-1.57,1.02-3.72,1.68-5.78,1.68-2.83,0-4.91-1.02-4.91-4.26v-11.7h4.69v10.59c0,1.71.9,2.1,2.38,2.1,1.19,0,2.5-.39,3.53-.78Z"/><path class="cls-1" d="m213.07,82.19v11.37h-4.69v-15.75h3.18c.8,0,1.28.33,1.44,1.89,1.06-1.05,2.6-2.04,4.69-2.04.35,0,.71.06,1.03.15v3.45h-.8c-2.31,0-3.95.48-4.85.93Z"/><path class="cls-1" d="m220.83,92.45v-3.24h1.48c.77.66,2.18,1.32,4.14,1.32s2.89-.48,2.89-1.47-.61-1.41-2.99-1.68c-3.69-.42-5.65-1.71-5.65-4.8s2.54-4.95,6.68-4.95c2.44,0,3.95.45,5.3,1.08v3.18h-1.41c-.77-.54-2.12-1.05-3.85-1.05-1.83,0-2.54.51-2.54,1.41,0,.81.83,1.23,3.15,1.5,4.01.48,5.68,1.71,5.68,4.89s-2.15,5.1-7.03,5.1c-2.76,0-4.53-.6-5.84-1.29Z"/><path class="cls-1" d="m235.61,77.81h1.99v-4.2h4.69v4.2h3.4v2.94h-3.4v8.07c0,1.5.64,1.92,2.18,1.92h1.28v2.64c-.71.21-1.64.42-2.95.42-3.24,0-5.2-1.2-5.2-4.47v-8.58h-1.99v-2.94Z"/><path class="cls-1" d="m251.04,97.25l2.28-4.47-6.32-13.83v-1.14h4.4l4.14,9.72h.06l3.82-9.72h4.01v1.14l-8.38,19.47h-4.01v-1.17Z"/><path class="cls-1" d="m271.09,82.19v11.37h-4.69v-15.75h3.18c.8,0,1.28.33,1.44,1.89,1.06-1.05,2.6-2.04,4.69-2.04.35,0,.71.06,1.03.15v3.45h-.8c-2.31,0-3.95.48-4.85.93Z"/><path class="cls-1" d="m283.55,86.66c.22,3.15,1.83,4.02,4.43,4.02,1.89,0,3.37-.57,4.46-1.32h1.45v2.88c-1.35.72-3.24,1.53-6.61,1.53-5.52,0-8.54-3.06-8.54-8.01s3.53-8.19,8.22-8.19c4.94,0,7.58,2.55,7.58,7.74,0,.54-.06,1.2-.06,1.35h-10.92Zm.06-2.64h6.29c-.1-2.79-1.12-3.69-2.95-3.69-1.64,0-2.99.75-3.34,3.69Z"/><path class="cls-1" d="m296.99,93.56v-21h2.86c1.57,0,1.83.36,1.83,2.46v18.54h-4.69Z"/><path class="cls-1" d="m304.38,92.45v-3.24h1.48c.77.66,2.18,1.32,4.14,1.32s2.89-.48,2.89-1.47-.61-1.41-2.99-1.68c-3.69-.42-5.65-1.71-5.65-4.8s2.54-4.95,6.68-4.95c2.44,0,3.95.45,5.3,1.08v3.18h-1.41c-.77-.54-2.12-1.05-3.85-1.05-1.83,0-2.54.51-2.54,1.41,0,.81.83,1.23,3.15,1.5,4.01.48,5.68,1.71,5.68,4.89s-2.15,5.1-7.03,5.1c-2.76,0-4.53-.6-5.84-1.29Z"/><path class="cls-1" d="m324.32,86.66c.22,3.15,1.83,4.02,4.43,4.02,1.89,0,3.37-.57,4.46-1.32h1.45v2.88c-1.35.72-3.24,1.53-6.61,1.53-5.52,0-8.54-3.06-8.54-8.01s3.53-8.19,8.22-8.19c4.94,0,7.58,2.55,7.58,7.74,0,.54-.06,1.2-.06,1.35h-10.92Zm.06-2.64h6.29c-.1-2.79-1.12-3.69-2.95-3.69-1.64,0-2.99.75-3.34,3.69Z"/><path class="cls-1" d="m342.31,79.49c1.57-1.08,3.88-1.92,6.13-1.92,2.44,0,4.53.87,4.53,4.41v11.58h-4.69v-10.47c0-1.56-.64-2.01-2.09-2.01s-2.76.36-3.82.72v11.76h-4.69v-15.75h3.18c.8,0,1.25.33,1.44,1.68Z"/></g></svg>